<svg width="42" height="37" viewBox="0 0 42 37" fill="none" xmlns="http://www.w3.org/2000/svg">
<path d="M12.5412 21.4126C13.6934 21.4126 14.8071 21.3381 15.861 21.1996V9.64804C14.8072 9.50961 13.6934 9.43518 12.5412 9.43518C5.9623 9.43518 0.629044 11.854 0.629044 14.838V16.0097C0.629044 18.9935 5.9623 21.4126 12.5412 21.4126Z" fill="white"/>
<path d="M12.5412 27.4443C13.6934 27.4443 14.8071 27.3698 15.861 27.2315V23.8455C14.8069 23.984 13.6937 24.0594 12.5412 24.0594C6.79853 24.0594 2.00544 22.2162 0.879576 19.7632C0.715617 20.1205 0.629044 20.4905 0.629044 20.8698V22.0415C0.629044 25.0254 5.9623 27.4443 12.5412 27.4443Z" fill="white"/>
<path d="M15.8608 30.1407V29.8775C14.8067 30.0159 13.6935 30.0914 12.541 30.0914C6.79839 30.0914 2.0053 28.2482 0.879438 25.7952C0.71548 26.1524 0.628906 26.5224 0.628906 26.9016V28.0733C0.628906 31.0574 5.96216 33.4762 12.541 33.4762C13.8567 33.4762 15.1221 33.3793 16.3054 33.2006C16.0121 32.6006 15.8608 31.9678 15.8608 31.3123V30.1407Z" fill="white"/>
<path d="M29.7165 0.284668C23.1377 0.284668 17.8044 2.70353 17.8044 5.68746V6.85917C17.8044 9.8431 23.1377 12.262 29.7165 12.262C36.2953 12.262 41.6287 9.8431 41.6287 6.85917V5.68746C41.6287 2.70353 36.2953 0.284668 29.7165 0.284668Z" fill="white"/>
<path d="M29.7165 14.909C23.9739 14.909 19.1808 13.066 18.0549 10.6128C17.891 10.97 17.8044 11.34 17.8044 11.7194V12.8911C17.8044 15.875 23.1377 18.2939 29.7165 18.2939C36.2953 18.2939 41.6287 15.875 41.6287 12.8911V11.7194C41.6287 11.34 41.5421 10.97 41.3781 10.6128C40.2523 13.066 35.4592 14.909 29.7165 14.909Z" fill="white"/>
<path d="M29.7165 20.941C23.9739 20.941 19.1808 19.0978 18.0549 16.6448C17.891 17.002 17.8044 17.372 17.8044 17.7513V18.9231C17.8044 21.9071 23.1377 24.326 29.7165 24.326C36.2953 24.326 41.6287 21.9071 41.6287 18.9231V17.7513C41.6287 17.372 41.5421 17.002 41.3781 16.6448C40.2523 19.0979 35.4592 20.941 29.7165 20.941Z" fill="white"/>
<path d="M29.7165 27.2985C23.9739 27.2985 19.1808 25.4554 18.0549 23.0023C17.891 23.3596 17.8044 23.7295 17.8044 24.1088V25.2806C17.8044 28.2645 23.1377 30.6834 29.7165 30.6834C36.2953 30.6834 41.6287 28.2645 41.6287 25.2806V24.1088C41.6287 23.7295 41.5421 23.3594 41.3781 23.0023C40.2523 25.4553 35.4592 27.2985 29.7165 27.2985Z" fill="white"/>
<path d="M29.7165 33.3304C23.9739 33.3304 19.1808 31.4873 18.0549 29.0343C17.891 29.3916 17.8044 29.7617 17.8044 30.1407V31.3125C17.8044 34.2964 23.1377 36.7152 29.7165 36.7152C36.2953 36.7152 41.6287 34.2964 41.6287 31.3125V30.1406C41.6287 29.7614 41.5421 29.3913 41.3781 29.0342C40.2523 31.4872 35.4592 33.3304 29.7165 33.3304Z" fill="white"/>
</svg>
