<svg width="50" height="44" viewBox="0 0 50 44" fill="none" xmlns="http://www.w3.org/2000/svg">
<path d="M35.5664 0.171875H27.7539C27.1067 0.171875 26.582 0.696541 26.582 1.34375V3.6875C26.582 4.33471 27.1067 4.85938 27.7539 4.85938H35.5664C36.2136 4.85938 36.7383 4.33471 36.7383 3.6875V1.34375C36.7383 0.696541 36.2136 0.171875 35.5664 0.171875Z" fill="white"/>
<path d="M12.9102 17.3594H5.09766C4.78686 17.3594 4.48878 17.4828 4.26902 17.7026C4.04925 17.9224 3.92578 18.2204 3.92578 18.5312C3.92578 18.8421 4.04925 19.1401 4.26902 19.3599C4.48878 19.5797 4.78686 19.7031 5.09766 19.7031H12.9102C13.221 19.7031 13.519 19.5797 13.7388 19.3599C13.9586 19.1401 14.082 18.8421 14.082 18.5312C14.082 18.2204 13.9586 17.9224 13.7388 17.7026C13.519 17.4828 13.221 17.3594 12.9102 17.3594Z" fill="white"/>
<path d="M12.5195 27.9062C12.5195 27.5954 12.3961 27.2974 12.1763 27.0776C11.9565 26.8578 11.6585 26.7344 11.3477 26.7344H3.53516C3.22436 26.7344 2.92628 26.8578 2.70652 27.0776C2.48675 27.2974 2.36328 27.5954 2.36328 27.9062C2.36328 28.2171 2.48675 28.5151 2.70652 28.7349C2.92628 28.9547 3.22436 29.0781 3.53516 29.0781H11.3477C11.6585 29.0781 11.9565 28.9547 12.1763 28.7349C12.3961 28.5151 12.5195 28.2171 12.5195 27.9062Z" fill="white"/>
<path d="M12.1289 31.4219H6.66016C6.34936 31.4219 6.05128 31.5453 5.83152 31.7651C5.61175 31.9849 5.48828 32.2829 5.48828 32.5938C5.48828 32.9046 5.61175 33.2026 5.83152 33.4224C6.05128 33.6422 6.34936 33.7656 6.66016 33.7656H12.1289C12.4397 33.7656 12.7378 33.6422 12.9575 33.4224C13.1773 33.2026 13.3008 32.9046 13.3008 32.5938C13.3008 32.2829 13.1773 31.9849 12.9575 31.7651C12.7378 31.5453 12.4397 31.4219 12.1289 31.4219Z" fill="white"/>
<path d="M12.5195 23.2188C12.5195 22.9079 12.3961 22.6099 12.1763 22.3901C11.9565 22.1703 11.6585 22.0469 11.3477 22.0469H1.19141C0.880606 22.0469 0.582535 22.1703 0.362765 22.3901C0.142996 22.6099 0.0195313 22.9079 0.0195312 23.2188C0.0195313 23.5296 0.142996 23.8276 0.362765 24.0474C0.582535 24.2672 0.880606 24.3906 1.19141 24.3906H11.3477C11.6585 24.3906 11.9565 24.2672 12.1763 24.0474C12.3961 23.8276 12.5195 23.5296 12.5195 23.2188Z" fill="white"/>
<path d="M31.6602 25.5625V12.2812C24.3368 12.2812 18.3789 18.2392 18.3789 25.5625C18.3789 32.8858 24.3368 38.8438 31.6602 38.8438C38.9835 38.8438 44.9414 32.8858 44.9414 25.5625H31.6602Z" fill="white"/>
<path d="M44.5134 13.5853L45.77 12.3286C45.8802 12.2201 45.9679 12.0909 46.028 11.9483C46.0881 11.8058 46.1193 11.6527 46.12 11.498C46.1206 11.3433 46.0906 11.19 46.0317 11.047C45.9728 10.904 45.8861 10.774 45.7767 10.6646C45.6674 10.5552 45.5374 10.4686 45.3944 10.4097C45.2513 10.3508 45.098 10.3208 44.9433 10.3214C44.7886 10.322 44.6356 10.3533 44.493 10.4133C44.3505 10.4734 44.2212 10.5611 44.1127 10.6714L42.8049 11.9791C40.2863 9.90433 37.238 8.57482 34.0038 8.14062V6.03125H29.3163V8.14062C26.0823 8.57465 23.0339 9.90395 20.5153 11.9785L19.2075 10.6708C19.099 10.5605 18.9697 10.4728 18.8272 10.4128C18.6846 10.3527 18.5316 10.3214 18.3769 10.3208C18.2222 10.3202 18.0689 10.3502 17.9259 10.4091C17.7828 10.468 17.6528 10.5546 17.5435 10.664C17.4341 10.7734 17.3474 10.9034 17.2885 11.0464C17.2296 11.1895 17.1996 11.3427 17.2002 11.4974C17.2009 11.6521 17.2321 11.8052 17.2922 11.9477C17.3523 12.0903 17.44 12.2195 17.5502 12.328L18.8068 13.5847C15.7679 16.8324 14.0787 21.1148 14.082 25.5625C14.082 35.2551 21.9675 43.1406 31.6601 43.1406C41.3527 43.1406 49.2382 35.2551 49.2382 25.5625C49.2413 21.115 47.5521 16.8329 44.5134 13.5853ZM31.6601 40.0156C28.8015 40.0156 26.0072 39.168 23.6304 37.5798C21.2536 35.9917 19.4011 33.7344 18.3072 31.0935C17.2132 28.4525 16.927 25.5465 17.4847 22.7428C18.0424 19.9392 19.4189 17.3639 21.4402 15.3426C23.4615 13.3213 26.0368 11.9448 28.8404 11.3871C31.6441 10.8294 34.5501 11.1156 37.1911 12.2096C39.832 13.3035 42.0893 15.156 43.6774 17.5328C45.2656 19.9096 46.1132 22.7039 46.1132 25.5625C46.1132 27.4605 45.7394 29.3399 45.013 31.0935C44.2867 32.847 43.2221 34.4403 41.88 35.7824C40.5379 37.1245 38.9446 38.1891 37.1911 38.9154C35.4375 39.6418 33.5581 40.0156 31.6601 40.0156Z" fill="white"/>
</svg>
