<svg width="39" height="38" viewBox="0 0 39 38" fill="none" xmlns="http://www.w3.org/2000/svg">
<g clip-path="url(#clip0_697_704)">
<path d="M9.50907 7.70503L24.6579 3.57005L23.8556 1.94849C23.3307 0.894473 22.0506 0.459212 20.9966 0.984086L7.43518 7.70503H9.50907Z" fill="white"/>
<path d="M29.3604 3.68945C29.1727 3.68945 28.9849 3.71506 28.7971 3.76626L25.2383 4.7392L14.3695 7.70494H26.7062H32.0829L31.4172 5.26407C31.1612 4.31247 30.2992 3.68945 29.3604 3.68945Z" fill="white"/>
<path d="M34.3062 9.19849H33.8197H33.1583H32.4968H27.4487H8.89887H6.46653H4.41824H4.03845H2.76681C2.09258 9.19849 1.49089 9.51 1.09831 10.0007C0.91908 10.2269 0.782528 10.4872 0.705717 10.7731C0.658777 10.9523 0.628906 11.1401 0.628906 11.3321V11.5882V14.0205V35.1051C0.628906 36.2829 1.58477 37.2387 2.76254 37.2387H34.3019C35.4797 37.2387 36.4355 36.2829 36.4355 35.1051V29.1522H23.7746C21.7732 29.1522 20.1474 27.5264 20.1474 25.525V23.5706V22.9092V22.2478V20.7798C20.1474 19.7984 20.5399 18.9066 21.1758 18.2537C21.7391 17.6733 22.4944 17.2807 23.3393 17.1825C23.4801 17.1655 23.6252 17.1569 23.7703 17.1569H34.6604H35.3218H35.9832H36.4355V11.3321C36.4398 10.1544 35.4839 9.19849 34.3062 9.19849Z" fill="white"/>
<path d="M37.933 19.1968C37.7196 19.0005 37.4678 18.8511 37.1862 18.753C36.9685 18.6805 36.7381 18.6378 36.4949 18.6378H36.4394H36.3967H35.7353H33.3499H23.7742C22.5964 18.6378 21.6406 19.5936 21.6406 20.7715V21.834V22.4954V23.1568V25.5209C21.6406 26.6986 22.5964 27.6545 23.7742 27.6545H36.4394H36.4949C36.7381 27.6545 36.9686 27.6118 37.1862 27.5393C37.4678 27.4454 37.7196 27.2918 37.933 27.0955C38.3597 26.7072 38.6285 26.1439 38.6285 25.5209V20.7715C38.6285 20.1484 38.3597 19.5851 37.933 19.1968ZM28.2292 23.5707C28.2292 24.1596 27.7513 24.6375 27.1624 24.6375H26.454C25.8652 24.6375 25.3872 24.1596 25.3872 23.5707V22.8624C25.3872 22.521 25.5451 22.218 25.7969 22.0259C25.9804 21.8851 26.2066 21.7956 26.454 21.7956H26.6333H27.1624C27.7513 21.7956 28.2292 22.2734 28.2292 22.8624V23.5707Z" fill="white"/>
</g>
<defs>
<clipPath id="clip0_697_704">
<rect width="38" height="38" fill="white" transform="translate(0.628906)"/>
</clipPath>
</defs>
</svg>
