<svg width="54" height="40" viewBox="0 0 54 40" fill="none" xmlns="http://www.w3.org/2000/svg">
<path d="M16.0274 17.3575H3.23523C2.80499 17.3575 2.45609 17.7063 2.45609 18.1366V23.9537C2.45609 24.3841 2.80499 24.7331 3.23523 24.7331H16.0274C16.4577 24.7331 16.8066 24.3841 16.8066 23.9537V18.1366C16.8066 17.7063 16.4577 17.3575 16.0274 17.3575Z" fill="url(#paint0_linear_697_864)"/>
<path d="M41.163 19.5306H36.5496C36.3653 19.5306 36.2158 19.6801 36.2158 19.8646V24.478C36.2158 24.6623 36.3653 24.8119 36.5496 24.8119H41.163C41.3473 24.8119 41.4967 24.6623 41.4967 24.478V19.8646C41.4967 19.6801 41.3473 19.5306 41.163 19.5306Z" fill="url(#paint1_linear_697_864)"/>
<path d="M33.7623 19.5306H29.1491C28.9643 19.5306 28.8151 19.6801 28.8151 19.8646V24.478C28.8151 24.6623 28.9643 24.8119 29.1491 24.8119H33.7623C33.9471 24.8119 34.0965 24.6623 34.0965 24.478V19.8646C34.0965 19.6801 33.947 19.5306 33.7623 19.5306Z" fill="url(#paint2_linear_697_864)"/>
<path d="M26.3618 19.5306H21.7486C21.564 19.5306 21.4146 19.6801 21.4146 19.8646V24.478C21.4146 24.6623 21.564 24.8119 21.7486 24.8119H26.3618C26.5461 24.8119 26.6956 24.6623 26.6956 24.478V19.8646C26.6957 19.6801 26.5461 19.5306 26.3618 19.5306Z" fill="url(#paint3_linear_697_864)"/>
<path d="M33.7623 12.6107H29.1491C28.9643 12.6107 28.8151 12.7602 28.8151 12.9446V17.5579C28.8151 17.7423 28.9643 17.8919 29.1491 17.8919H33.7623C33.9471 17.8919 34.0965 17.7423 34.0965 17.5579V12.9446C34.0965 12.7602 33.947 12.6107 33.7623 12.6107Z" fill="url(#paint4_linear_697_864)"/>
<path d="M26.3618 12.6107H21.7486C21.564 12.6107 21.4146 12.7602 21.4146 12.9446V17.5579C21.4146 17.7423 21.564 17.8919 21.7486 17.8919H26.3618C26.5461 17.8919 26.6956 17.7423 26.6956 17.5579V12.9446C26.6957 12.7602 26.5461 12.6107 26.3618 12.6107Z" fill="url(#paint5_linear_697_864)"/>
<path d="M11.7104 9.62054H7.55237C7.30651 9.62054 7.10715 9.82001 7.10715 10.0659V15.3396C7.10715 15.5855 7.30651 15.7849 7.55237 15.7849H11.7104C11.9563 15.7849 12.1556 15.5856 12.1556 15.3396V10.0659C12.1556 9.82001 11.9562 9.62054 11.7104 9.62054Z" fill="url(#paint6_linear_697_864)"/>
<path d="M11.7104 5.98929H10.2992V1.15221C10.2992 0.783358 10.0001 0.484375 9.63126 0.484375C9.2623 0.484375 8.96331 0.783358 8.96331 1.15221V5.98929H7.55237C7.30651 5.98929 7.10715 6.18865 7.10715 6.43462V7.60279C7.10715 7.84854 7.30651 8.04801 7.55237 8.04801H11.7104C11.9563 8.04801 12.1556 7.84854 12.1556 7.60279V6.43462C12.1556 6.18865 11.9562 5.98929 11.7104 5.98929Z" fill="url(#paint7_linear_697_864)"/>
<path d="M53.9651 25.1428C53.9161 25.0547 53.8231 25 53.7221 25H44.8473C44.7618 25 44.6808 25.0395 44.6281 25.1069L43.4514 26.6125H0.278369C0.185798 26.6125 0.099508 26.6586 0.0476018 26.7354C-0.00408387 26.8121 -0.0144431 26.9096 0.0202712 26.9954C0.0202712 26.9954 3.79002 36.3084 5.04888 39.4118C5.09153 39.5169 5.19358 39.5855 5.30687 39.5855H45.0174C45.1139 39.5855 45.212 39.5521 45.2725 39.4538C47.4368 35.9421 53.9584 25.4248 53.9584 25.4248C54.0116 25.339 54.0141 25.2311 53.9651 25.1428ZM36.2375 32.1094C35.6343 32.1094 35.1448 31.6202 35.1448 31.0167C35.1448 30.4131 35.6343 29.924 36.2375 29.924C36.8411 29.924 37.3303 30.4132 37.3303 31.0167C37.3303 31.6201 36.8412 32.1094 36.2375 32.1094ZM41.5341 32.1094C40.9305 32.1094 40.4414 31.6202 40.4414 31.0167C40.4414 30.4131 40.9305 29.924 41.5341 29.924C42.1374 29.924 42.6265 30.4132 42.6265 31.0167C42.6265 31.6201 42.1373 32.1094 41.5341 32.1094Z" fill="url(#paint8_linear_697_864)"/>
<defs>
<linearGradient id="paint0_linear_697_864" x1="2.43159" y1="19.2348" x2="20.2264" y2="20.5351" gradientUnits="userSpaceOnUse">
<stop stop-color="#474FA0"/>
<stop offset="1" stop-color="#868DD9"/>
</linearGradient>
<linearGradient id="paint1_linear_697_864" x1="36.2067" y1="20.8749" x2="42.7809" y2="21.1217" gradientUnits="userSpaceOnUse">
<stop stop-color="#474FA0"/>
<stop offset="1" stop-color="#868DD9"/>
</linearGradient>
<linearGradient id="paint2_linear_697_864" x1="28.8061" y1="20.8749" x2="35.3808" y2="21.1218" gradientUnits="userSpaceOnUse">
<stop stop-color="#474FA0"/>
<stop offset="1" stop-color="#868DD9"/>
</linearGradient>
<linearGradient id="paint3_linear_697_864" x1="21.4056" y1="20.8749" x2="27.9797" y2="21.1217" gradientUnits="userSpaceOnUse">
<stop stop-color="#474FA0"/>
<stop offset="1" stop-color="#868DD9"/>
</linearGradient>
<linearGradient id="paint4_linear_697_864" x1="28.8061" y1="13.9549" x2="35.3808" y2="14.2018" gradientUnits="userSpaceOnUse">
<stop stop-color="#474FA0"/>
<stop offset="1" stop-color="#868DD9"/>
</linearGradient>
<linearGradient id="paint5_linear_697_864" x1="21.4056" y1="13.9549" x2="27.9797" y2="14.2018" gradientUnits="userSpaceOnUse">
<stop stop-color="#474FA0"/>
<stop offset="1" stop-color="#868DD9"/>
</linearGradient>
<linearGradient id="paint6_linear_697_864" x1="7.09853" y1="11.1896" x2="13.3861" y2="11.383" gradientUnits="userSpaceOnUse">
<stop stop-color="#474FA0"/>
<stop offset="1" stop-color="#868DD9"/>
</linearGradient>
<linearGradient id="paint7_linear_697_864" x1="7.09853" y1="2.4096" x2="13.3881" y2="2.56725" gradientUnits="userSpaceOnUse">
<stop stop-color="#474FA0"/>
<stop offset="1" stop-color="#868DD9"/>
</linearGradient>
<linearGradient id="paint8_linear_697_864" x1="-0.0921687" y1="28.7126" x2="65.9492" y2="37.8946" gradientUnits="userSpaceOnUse">
<stop stop-color="#474FA0"/>
<stop offset="1" stop-color="#868DD9"/>
</linearGradient>
</defs>
</svg>
