<svg width="48" height="48" viewBox="0 0 48 48" fill="none" xmlns="http://www.w3.org/2000/svg">
<g clip-path="url(#clip0_697_854)">
<path d="M47.5481 7.5918C47.4741 7.07544 47.1151 6.6451 46.6203 6.47977C46.1282 6.31307 45.5809 6.44342 45.2111 6.81189L43.264 8.76037C42.2232 9.80117 40.4092 9.80117 39.3684 8.76037C38.2914 7.68341 38.292 5.94239 39.3684 4.86617L41.3155 2.91906C41.684 2.55059 41.813 2.00467 41.6476 1.5098C41.4822 1.01492 41.0519 0.655903 40.5356 0.582007C37.9659 0.21895 35.3653 1.08221 33.5271 2.91769C31.4482 4.99789 30.6279 8.05574 31.3877 10.8997L11.0289 31.2577L11.0276 31.2563C8.19434 30.5047 5.11905 31.3249 3.04692 33.397C1.22081 35.2231 0.346809 37.8439 0.709866 40.4068C0.783854 40.9231 1.14287 41.3535 1.63766 41.5188C2.1285 41.6842 2.67707 41.5552 3.04692 41.1867L4.99403 39.2382C6.03482 38.1974 7.84882 38.1974 8.88961 39.2382C9.96657 40.315 9.96602 42.056 8.88961 43.1324L6.94251 45.0795C6.57403 45.448 6.44497 45.9939 6.61039 46.4888C6.7758 46.9837 7.20606 47.3427 7.72241 47.4166C10.2854 47.7813 12.8643 46.9458 14.7309 45.0809C16.8098 43.0007 17.6301 39.9429 16.8703 37.0989L37.2291 16.7409L37.2304 16.7423C40.0784 17.4967 43.1389 16.6737 45.2111 14.6016C47.0372 12.7755 47.9112 10.1548 47.5481 7.5918Z" fill="url(#paint0_linear_697_854)"/>
<path d="M39.3672 30.9766C38.7151 30.9766 38.044 31.0747 37.256 31.2832L31.9192 25.947L26.076 31.7895L31.4121 37.1259C31.2036 37.9152 31.1055 38.5862 31.1055 39.2383C31.1055 43.7941 34.8114 47.5 39.3672 47.5C43.923 47.5 47.6289 43.7941 47.6289 39.2383C47.6289 34.6825 43.923 30.9766 39.3672 30.9766ZM43.8853 38.9627L43.0664 42.0177C42.9386 42.4924 42.5675 42.8636 42.0929 42.9913L39.0378 43.8102C38.589 43.9339 38.0705 43.8164 37.708 43.4538L35.4718 41.2176C35.1235 40.8694 34.9877 40.3625 35.1154 39.8878L35.9343 36.8327C36.0621 36.358 36.4333 35.9869 36.9079 35.8592L39.9629 35.0403C40.435 34.9084 40.9432 35.0483 41.2928 35.3966L43.529 37.6328C43.8773 37.9811 44.013 38.488 43.8853 38.9627Z" fill="url(#paint1_linear_697_854)"/>
<path d="M16.8684 10.8217C17.6281 7.97777 16.8078 4.91864 14.7289 2.83972C11.6079 -0.279906 6.16328 -0.279906 3.04504 2.83972C-0.175473 6.06161 -0.175473 11.3031 3.04504 14.5236C5.1145 16.5931 8.17905 17.4254 11.027 16.663L16.3403 22.0523L22.1824 16.2108L16.8684 10.8217ZM13.2673 8.26822L12.4483 11.3233C12.3206 11.798 11.9494 12.1691 11.4748 12.2968L8.41974 13.1157C7.97095 13.2395 7.45239 13.122 7.08988 12.7594L4.85371 10.5232C4.50543 10.1749 4.36966 9.66803 4.49735 9.19335L5.31627 6.13826C5.44406 5.66357 5.81519 5.29244 6.28978 5.16475L9.34487 4.34583C9.81955 4.21676 10.3265 4.35391 10.6747 4.70219L12.9109 6.93836C13.2592 7.28663 13.3949 7.79354 13.2673 8.26822Z" fill="url(#paint2_linear_697_854)"/>
</g>
<defs>
<linearGradient id="paint0_linear_697_854" x1="0.548808" y1="12.4637" x2="59.0576" y2="14.6609" gradientUnits="userSpaceOnUse">
<stop stop-color="#474FA0"/>
<stop offset="1" stop-color="#868DD9"/>
</linearGradient>
<linearGradient id="paint1_linear_697_854" x1="26.0392" y1="31.433" x2="52.8698" y2="32.4406" gradientUnits="userSpaceOnUse">
<stop stop-color="#474FA0"/>
<stop offset="1" stop-color="#868DD9"/>
</linearGradient>
<linearGradient id="paint2_linear_697_854" x1="0.592867" y1="5.98585" x2="27.4232" y2="6.99344" gradientUnits="userSpaceOnUse">
<stop stop-color="#474FA0"/>
<stop offset="1" stop-color="#868DD9"/>
</linearGradient>
<clipPath id="clip0_697_854">
<rect width="47" height="47" fill="white" transform="translate(0.628906 0.5)"/>
</clipPath>
</defs>
</svg>
