<svg width="47" height="47" viewBox="0 0 47 47" fill="none" xmlns="http://www.w3.org/2000/svg">
<path d="M0.628906 43.1667H27.4622V47.0001H0.628906V43.1667Z" fill="url(#paint0_linear_697_832)"/>
<path d="M23.6289 39.3022C23.6289 38.7939 23.427 38.3064 23.0675 37.9469C22.7081 37.5875 22.2206 37.3856 21.7122 37.3856H6.3789C5.87057 37.3856 5.38306 37.5875 5.02361 37.9469C4.66417 38.3064 4.46223 38.7939 4.46223 39.3022V41.25H23.6289V39.3022Z" fill="url(#paint1_linear_697_832)"/>
<path d="M26.708 23.6316C25.815 24.5834 25.0661 25.6608 24.4852 26.8295L40.2613 42.6056C40.6207 42.9649 41.1081 43.1668 41.6163 43.1668C42.1246 43.1668 42.612 42.9649 42.9714 42.6056L45.6821 39.895C45.8601 39.717 46.0012 39.5057 46.0976 39.2731C46.1939 39.0406 46.2435 38.7913 46.2435 38.5396C46.2435 38.2879 46.1939 38.0387 46.0976 37.8061C46.0012 37.5736 45.8601 37.3623 45.6821 37.1843L29.906 21.4125C28.7352 21.9884 27.6572 22.7363 26.708 23.6316Z" fill="url(#paint2_linear_697_832)"/>
<path d="M17.221 14.1445C15.7716 15.4896 14.0938 16.5653 12.2664 17.3209L22.1727 27.2272C22.9351 25.403 24.0119 23.7269 25.3539 22.275C26.8035 20.93 28.4812 19.8542 30.3085 19.0982L20.4017 9.19379C19.639 11.0173 18.5625 12.6929 17.221 14.1445Z" fill="url(#paint3_linear_697_832)"/>
<path d="M23.9943 1.94983L21.2841 4.65999C20.5357 5.40838 20.5357 6.62177 21.2841 7.37016L32.1248 18.2108C32.8732 18.9592 34.0866 18.9592 34.8349 18.2108L37.5451 15.5007C38.2935 14.7523 38.2935 13.5389 37.5451 12.7905L26.7044 1.94983C25.9561 1.20143 24.7427 1.20143 23.9943 1.94983Z" fill="url(#paint4_linear_697_832)"/>
<path d="M7.73088 18.2101L5.02072 20.9203C4.27233 21.6687 4.27233 22.8821 5.02072 23.6305L15.8614 34.4711C16.6098 35.2195 17.8232 35.2195 18.5715 34.4711L21.2817 31.761C22.0301 31.0126 22.0301 29.7992 21.2817 29.0508L10.441 18.2101C9.69266 17.4617 8.47927 17.4617 7.73088 18.2101Z" fill="url(#paint5_linear_697_832)"/>
<defs>
<linearGradient id="paint0_linear_697_832" x1="0.583106" y1="44.1424" x2="31.8721" y2="52.3675" gradientUnits="userSpaceOnUse">
<stop stop-color="#474FA0"/>
<stop offset="1" stop-color="#868DD9"/>
</linearGradient>
<linearGradient id="paint1_linear_697_832" x1="4.42952" y1="38.3692" x2="27.5221" y2="42.6703" gradientUnits="userSpaceOnUse">
<stop stop-color="#474FA0"/>
<stop offset="1" stop-color="#868DD9"/>
</linearGradient>
<linearGradient id="paint2_linear_697_832" x1="24.448" y1="26.9498" x2="51.5343" y2="27.9672" gradientUnits="userSpaceOnUse">
<stop stop-color="#474FA0"/>
<stop offset="1" stop-color="#868DD9"/>
</linearGradient>
<linearGradient id="paint3_linear_697_832" x1="12.2356" y1="13.784" x2="34.6956" y2="14.6278" gradientUnits="userSpaceOnUse">
<stop stop-color="#474FA0"/>
<stop offset="1" stop-color="#868DD9"/>
</linearGradient>
<linearGradient id="paint4_linear_697_832" x1="23.369" y1="9.47352" x2="30.226" y2="2.8194" gradientUnits="userSpaceOnUse">
<stop stop-color="#474FA0"/>
<stop offset="1" stop-color="#868DD9"/>
</linearGradient>
<linearGradient id="paint5_linear_697_832" x1="7.10557" y1="25.7338" x2="13.9627" y2="19.0797" gradientUnits="userSpaceOnUse">
<stop stop-color="#474FA0"/>
<stop offset="1" stop-color="#868DD9"/>
</linearGradient>
</defs>
</svg>
