<svg width="260" height="60" viewBox="0 0 260 60" fill="none" xmlns="http://www.w3.org/2000/svg">
<path d="M0.628906 4C0.628906 1.79086 2.41977 0 4.62891 0H255.629C257.838 0 259.629 1.79086 259.629 4V56C259.629 58.2091 257.838 60 255.629 60H4.62891C2.41977 60 0.628906 58.2091 0.628906 56V4Z" fill="url(#paint0_linear_697_903)"/>
<path d="M118.69 29.664L122.38 36H117.916L115.324 31.5H113.056V36H109.168V23.4H113.056V27.828H115.414L118.024 23.4H122.452L118.69 29.664ZM133.689 33.912H128.505L127.695 36H123.609L128.703 23.4H133.527L138.621 36H134.499L133.689 33.912ZM132.285 30.24L131.097 27.162L129.909 30.24H132.285ZM151.293 27.072H146.739V36H142.851V27.072H138.297V23.4H151.293V27.072ZM161.073 33.912H155.889L155.079 36H150.993L156.087 23.4H160.911L166.005 36H161.883L161.073 33.912ZM159.669 30.24L158.481 27.162L157.293 30.24H159.669ZM181.403 23.4V36H177.515V27.072H174.329L173.645 31.986C173.441 33.414 172.883 34.44 171.971 35.064C171.071 35.688 169.715 36 167.903 36H167.633V32.292C168.521 32.292 169.103 32.178 169.379 31.95C169.667 31.722 169.859 31.26 169.955 30.564L170.963 23.4H181.403ZM198.176 29.124V30.276C198.152 32.556 197.708 34.128 196.844 34.992C195.992 35.844 194.426 36.282 192.146 36.306H190.49C188.21 36.282 186.638 35.844 185.774 34.992C184.922 34.128 184.484 32.556 184.46 30.276V29.124C184.484 26.844 184.922 25.278 185.774 24.426C186.638 23.562 188.21 23.118 190.49 23.094H192.146C194.426 23.118 195.992 23.562 196.844 24.426C197.708 25.278 198.152 26.844 198.176 29.124ZM188.348 29.214V30.186C188.348 31.194 188.498 31.848 188.798 32.148C189.098 32.448 189.752 32.598 190.76 32.598H191.876C192.884 32.598 193.538 32.448 193.838 32.148C194.138 31.848 194.288 31.194 194.288 30.186V29.214C194.288 28.218 194.138 27.57 193.838 27.27C193.538 26.958 192.884 26.802 191.876 26.802H190.76C189.752 26.802 189.098 26.958 188.798 27.27C188.498 27.57 188.348 28.218 188.348 29.214ZM212.232 27.072H205.122V36H201.234V23.4H212.232V27.072Z" fill="white"/>
<g clip-path="url(#clip0_697_903)">
<path d="M45.6292 30.0259C45.6293 30.0173 45.6295 30.0086 45.6295 29.9999C45.6295 26.2604 44.1733 22.7447 41.5291 20.1005C38.8849 17.4563 35.3692 16 31.6297 16C27.8902 16 24.3745 17.4563 21.7303 20.1005C19.0925 22.7383 17.6372 26.2433 17.6301 29.9725V29.9743C17.63 29.9828 17.6298 29.9913 17.6298 29.9999C17.6298 33.7394 19.086 37.2551 21.7302 39.8993C24.3726 42.5418 27.8854 43.9978 31.622 43.9997C31.6247 43.9998 31.6274 44 31.6301 44C31.6315 44 31.633 43.9998 31.6344 43.9998C35.3721 43.9986 38.886 42.5425 41.5291 39.8993C44.1667 37.2617 45.622 33.7568 45.6292 30.0278C45.6292 30.0272 45.6292 30.0265 45.6292 30.0259ZM38.2352 40.4414L37.0318 39.6468C36.6537 39.3972 36.1449 39.5013 35.8953 39.8793C35.6456 40.2574 35.7498 40.7662 36.1278 41.0159L36.588 41.3198C35.2141 41.924 33.7103 42.2849 32.1309 42.3483L31.4845 41.0554C31.2819 40.6502 30.7891 40.486 30.3839 40.6886C29.9787 40.8912 29.8144 41.3839 30.0171 41.7892L30.2642 42.2835C28.7003 42.1108 27.2236 41.6453 25.8899 40.9429L25.9764 39.5019C26.0036 39.0497 25.659 38.6611 25.2068 38.6339C24.7558 38.6074 24.3659 38.9513 24.3387 39.4035L24.3059 39.9492C23.0717 39.0383 22.0124 37.9039 21.1883 36.6058L21.9828 35.4024C22.2323 35.0242 22.1282 34.5154 21.7501 34.2658C21.372 34.0163 20.8632 34.1204 20.6136 34.4985L20.3098 34.9586C19.7056 33.5847 19.3446 32.0809 19.2813 30.5016L20.574 29.855C20.9792 29.6523 21.1434 29.1596 20.9407 28.7544C20.7381 28.3492 20.2454 28.1851 19.8402 28.3877L19.3461 28.6348C19.5187 27.0708 19.9843 25.594 20.6867 24.2603L22.1276 24.3469C22.1444 24.3479 22.161 24.3484 22.1776 24.3484C22.6081 24.3484 22.9695 24.0127 22.9957 23.5772C23.0228 23.125 22.6783 22.7364 22.2261 22.7092L21.6803 22.6764C22.5913 21.4421 23.7258 20.3827 25.024 19.5585L26.2276 20.3531C26.3667 20.445 26.5236 20.4889 26.6787 20.4889C26.9451 20.4889 27.2064 20.3593 27.3641 20.1204C27.6137 19.7423 27.5095 19.2335 27.1314 18.9839L26.6712 18.6802C28.0451 18.076 29.5488 17.715 31.128 17.6517L31.7747 18.9445C31.9185 19.2319 32.2081 19.398 32.509 19.398C32.6323 19.398 32.7575 19.3702 32.8753 19.3112C33.2805 19.1085 33.4447 18.6158 33.242 18.2106L32.9948 17.7164C34.5589 17.8891 36.0357 18.3547 37.3695 19.0572L37.2831 20.4981C37.256 20.9504 37.6006 21.3389 38.0529 21.3661C38.0696 21.3671 38.0862 21.3675 38.1027 21.3675C38.5333 21.3675 38.8947 21.0318 38.9208 20.5963L38.9535 20.0509C40.1877 20.9618 41.247 22.0964 42.0712 23.3945L41.2766 24.5979C41.0269 24.9759 41.131 25.4848 41.509 25.7344C41.6482 25.8264 41.8051 25.8703 41.9603 25.8703C42.2266 25.8703 42.4878 25.7408 42.6456 25.5019L42.9495 25.0417C43.5536 26.4156 43.9146 27.9194 43.9779 29.4987L42.6851 30.1451C42.2799 30.3477 42.1157 30.8404 42.3183 31.2456C42.462 31.5331 42.7517 31.6993 43.0526 31.6993C43.1759 31.6993 43.3011 31.6714 43.4188 31.6125L43.9131 31.3653C43.7404 32.9293 43.2749 34.4061 42.5724 35.7398L41.1313 35.6534C40.679 35.6266 40.2905 35.9709 40.2634 36.4231C40.2362 36.8754 40.5809 37.2639 41.0331 37.291L41.5788 37.3237C40.6679 38.5579 39.5333 39.6172 38.2352 40.4414Z" fill="white"/>
<path d="M31.6289 21.272C26.8163 21.272 22.9009 25.1874 22.9009 30.0001C22.9009 34.8127 26.8163 38.7282 31.6289 38.7282C36.4415 38.7282 40.3569 34.8128 40.3569 30.0001C40.3569 25.1874 36.4415 21.272 31.6289 21.272ZM31.6289 31.8157C30.6277 31.8157 29.8133 31.0012 29.8133 30.0001C29.8133 28.9989 30.6278 28.1845 31.6289 28.1845C32.6301 28.1845 33.4445 28.999 33.4445 30.0001C33.4445 31.0012 32.6301 31.8157 31.6289 31.8157ZM24.5415 30.0001C24.5415 29.0026 24.749 28.0527 25.1226 27.1909L28.3116 29.032C28.2217 29.3394 28.1726 29.664 28.1726 30.0001C28.1726 30.3362 28.2217 30.6607 28.3116 30.9681L25.1225 32.8092C24.7491 31.9474 24.5415 30.9976 24.5415 30.0001ZM34.9462 29.032L38.1352 27.1909C38.5087 28.0527 38.7163 29.0026 38.7163 30.0001C38.7163 30.9976 38.5088 31.9474 38.1352 32.8092L34.9462 30.9681C35.036 30.6607 35.0851 30.3362 35.0851 30.0001C35.0851 29.664 35.036 29.3394 34.9462 29.032ZM37.313 25.7712L34.1241 27.6122C33.6761 27.1443 33.0985 26.8017 32.4493 26.643V22.9603C34.4354 23.1903 36.1741 24.2444 37.313 25.7712ZM30.8086 22.9603V26.643C30.1593 26.8017 29.5817 27.1442 29.1337 27.6122L25.9448 25.7712C27.0837 24.2444 28.8224 23.1903 30.8086 22.9603ZM25.9448 34.2289L29.1337 32.3879C29.5817 32.8559 30.1593 33.1984 30.8086 33.3571V37.0398C28.8224 36.8098 27.0837 35.7558 25.9448 34.2289ZM32.4492 37.0398V33.3571C33.0985 33.1984 33.6761 32.8559 34.1241 32.3879L37.313 34.2289C36.1741 35.7558 34.4354 36.8098 32.4492 37.0398Z" fill="white"/>
</g>
<line opacity="0.1" x1="61.6289" y1="-4.37114e-08" x2="61.6289" y2="60" stroke="black" stroke-width="2"/>
<defs>
<linearGradient id="paint0_linear_697_903" x1="0.186839" y1="15.2722" x2="314.795" y2="66.272" gradientUnits="userSpaceOnUse">
<stop stop-color="#FD4B0D"/>
<stop offset="1" stop-color="#FF855A"/>
</linearGradient>
<clipPath id="clip0_697_903">
<rect width="28" height="28" fill="white" transform="translate(17.6289 16)"/>
</clipPath>
</defs>
</svg>
