<svg width="18" height="18" viewBox="0 0 18 18" fill="none" xmlns="http://www.w3.org/2000/svg">
<path d="M12.9077 11.5488C13.77 10.3715 14.2858 8.92535 14.2858 7.35765C14.2858 3.43324 11.0922 0.240234 7.167 0.240234C3.24184 0.240234 0.0482483 3.43324 0.0482483 7.35765C0.0482483 11.2821 3.24187 14.4751 7.16704 14.4751C8.73504 14.4751 10.1816 13.9593 11.3591 13.0972L16.0228 17.76L17.5715 16.2116C17.5715 16.2116 12.9077 11.5488 12.9077 11.5488ZM7.16704 12.2851C4.44936 12.2851 2.23866 10.0748 2.23866 7.35765C2.23866 4.64049 4.44936 2.43022 7.16704 2.43022C9.88472 2.43022 12.0954 4.64049 12.0954 7.35765C12.0954 10.0748 9.88468 12.2851 7.16704 12.2851Z" fill="#474FA0"/>
</svg>
