<svg width="41" height="40" viewBox="0 0 41 40" fill="none" xmlns="http://www.w3.org/2000/svg">
<rect x="0.867004" width="40.0077" height="40" rx="20" fill="url(#paint0_radial_697_787)"/>
<path d="M10.9948 16.0867C11.0621 15.6121 11.1133 15.1348 11.1987 14.6636C11.683 11.9949 13.5727 10.1792 16.2747 10.0861C19.5279 9.97435 22.791 9.96845 26.0438 10.0856C28.9846 10.1915 31.1144 12.3686 31.2062 15.3098C31.304 18.4329 31.304 21.5637 31.2062 24.6869C31.1144 27.6281 28.9853 29.8049 26.0441 29.911C22.7913 30.0285 19.5275 30.0314 16.2749 29.9093C13.3336 29.7988 11.3004 27.6168 11.1037 24.6711C11.0867 24.4163 11.032 24.1637 10.9948 23.9102C10.9948 21.3023 10.9948 18.6944 10.9948 16.0867ZM21.1399 28.1679C22.6285 28.1679 24.1186 28.2125 25.6053 28.1576C27.9362 28.0712 29.3699 26.6803 29.4244 24.3521C29.4918 21.451 29.4918 18.5459 29.4244 15.6446C29.3699 13.3168 27.9352 11.8935 25.6053 11.844C22.648 11.7815 19.6875 11.782 16.7302 11.844C14.418 11.8925 12.9801 13.287 12.9173 15.5892C12.8375 18.527 12.8375 21.4699 12.9173 24.4077C12.9801 26.7096 14.418 28.0719 16.7304 28.1576C18.1984 28.2122 19.67 28.1679 21.1399 28.1679Z" fill="url(#paint1_linear_697_787)"/>
<path d="M10.8688 16.0867C10.936 15.6121 10.9872 15.1348 11.0726 14.6636C11.5569 11.9949 13.4467 10.1792 16.1486 10.0861C19.4019 9.97435 22.665 9.96845 25.9177 10.0856C28.8585 10.1915 30.9883 12.3686 31.0802 15.3098C31.1779 18.4329 31.1779 21.5637 31.0802 24.6869C30.9883 27.6281 28.8593 29.8049 25.918 29.911C22.6652 30.0285 19.4014 30.0314 16.1489 29.9093C13.2076 29.7988 11.1743 27.6168 10.9776 24.6711C10.9606 24.4163 10.906 24.1637 10.8688 23.9102C10.8688 21.3023 10.8688 18.6944 10.8688 16.0867ZM21.0139 28.1679C22.5025 28.1679 23.9926 28.2125 25.4792 28.1576C27.8102 28.0712 29.2439 26.6803 29.2983 24.3521C29.3657 21.451 29.3657 18.5459 29.2983 15.6446C29.2439 13.3168 27.8092 11.8935 25.4792 11.844C22.5219 11.7815 19.5614 11.782 16.6041 11.844C14.2919 11.8925 12.854 13.287 12.7912 15.5892C12.7115 18.527 12.7115 21.4699 12.7912 24.4077C12.854 26.7096 14.2919 28.0719 16.6044 28.1576C18.0723 28.2122 19.5439 28.1679 21.0139 28.1679Z" fill="white"/>
<path d="M21.0107 14.832C18.156 14.832 15.8416 17.1458 15.8416 19.9998C15.8416 22.8542 18.156 25.1679 21.0107 25.1679C23.8655 25.1679 26.1797 22.8542 26.1797 19.9998C26.1797 17.1458 23.8655 14.832 21.0107 14.832ZM21.0107 23.3886C19.1387 23.3886 17.6213 21.8715 17.6213 19.9998C17.6213 18.1282 19.1387 16.6111 21.0107 16.6111C22.8827 16.6111 24.4001 18.1282 24.4001 19.9998C24.4001 21.8715 22.8827 23.3886 21.0107 23.3886Z" fill="white"/>
<path d="M27.7107 14.5963C27.7107 15.2752 27.1603 15.8257 26.4814 15.8257C25.8024 15.8257 25.2517 15.2752 25.2517 14.5963C25.2517 13.9171 25.8024 13.3667 26.4814 13.3667C27.1603 13.3667 27.7107 13.9171 27.7107 14.5963Z" fill="white"/>
<defs>
<radialGradient id="paint0_radial_697_787" cx="0" cy="0" r="1" gradientUnits="userSpaceOnUse" gradientTransform="translate(9.06836 34.9568) scale(44.1215 44.113)">
<stop stop-color="#FAE100"/>
<stop offset="0.0544" stop-color="#FADC04"/>
<stop offset="0.1167" stop-color="#FBCE0E"/>
<stop offset="0.1829" stop-color="#FCB720"/>
<stop offset="0.2514" stop-color="#FE9838"/>
<stop offset="0.3054" stop-color="#FF7950"/>
<stop offset="0.4922" stop-color="#FF1C74"/>
<stop offset="1" stop-color="#6C1CD1"/>
</radialGradient>
<linearGradient id="paint1_linear_697_787" x1="27.5449" y1="13.6382" x2="14.4926" y2="26.693" gradientUnits="userSpaceOnUse">
<stop stop-color="#833AB4"/>
<stop offset="0.0922" stop-color="#9C3495"/>
<stop offset="0.2927" stop-color="#DC2546"/>
<stop offset="0.392" stop-color="#FD1D1D"/>
<stop offset="0.5589" stop-color="#FC6831"/>
<stop offset="0.6887" stop-color="#FC9B40"/>
<stop offset="0.7521" stop-color="#FCAF45"/>
<stop offset="0.7806" stop-color="#FDB750"/>
<stop offset="0.8656" stop-color="#FECB6A"/>
<stop offset="0.9415" stop-color="#FFD87A"/>
<stop offset="1" stop-color="#FFDC80"/>
</linearGradient>
</defs>
</svg>
