<svg width="216" height="73" viewBox="0 0 216 73" fill="none" xmlns="http://www.w3.org/2000/svg">
<path d="M63.5157 41.6189C63.5157 43.6925 154.268 42.8411 154.268 40.1817C153.523 37.947 63.5157 38.9047 63.5157 41.6189Z" fill="#20272B"/>
<path d="M112.918 1.55494C94.0646 5.63977 77.2324 13.5687 71.173 17.0226C100.32 6.26727 115.253 3.19658 131.369 4.78551C147.485 6.37444 164.283 9.70364 175.329 13.3355C184.167 16.241 194.978 18.8352 199.278 19.7691C193.429 20.5238 190.316 19.5804 181.26 18.2597C172.204 16.9391 162.205 18.3541 151.828 20.8068C143.526 22.7689 133.29 23.6686 129.21 23.8732C133.5 24.2239 144.222 24.4736 152.785 22.6668C163.488 20.4083 176.941 19.9173 184.403 22.0776C190.374 23.8058 195.27 24.0415 196.972 23.9433C209.07 21.9794 214.451 15.0731 215.629 11.8654C205.712 19.5246 195.499 14.5167 188.429 12.5528C181.359 10.5889 136.485 -3.5511 112.918 1.55494Z" fill="#20272B"/>
<path d="M61.11 18.6626C29.874 20.7885 7.77437 29.4506 0.629028 33.5159C21.8661 26.3767 51.8218 20.3791 87.3538 22.3243C122.886 24.2695 154.57 17.5543 165.971 13.9536C103.693 22.3956 100.155 16.0051 61.11 18.6626Z" fill="#20272B"/>
<path d="M20.2689 29.5272C12.8574 31.6876 9.30418 34.5532 8.45401 35.7159C9.71676 35.8159 14.0801 35.6034 21.4316 33.953C30.6209 31.8901 32.4213 26.4891 31.2586 26.5266C30.0958 26.5641 29.5332 26.8267 20.2689 29.5272Z" fill="#20272B"/>
<path d="M44.4367 55.9161H51.2217C52.9237 55.9161 54.434 56.2534 55.7527 56.9281C57.0713 57.6028 58.091 58.5534 58.8117 59.7801C59.5477 60.9914 59.9157 62.3868 59.9157 63.9661C59.9157 65.5454 59.5477 66.9484 58.8117 68.1751C58.091 69.3864 57.0713 70.3294 55.7527 71.0041C54.434 71.6788 52.9237 72.0161 51.2217 72.0161H44.4367V55.9161ZM51.0837 70.0151C52.387 70.0151 53.5293 69.7621 54.5107 69.2561C55.5073 68.7501 56.274 68.0448 56.8107 67.1401C57.3473 66.2201 57.6157 65.1621 57.6157 63.9661C57.6157 62.7701 57.3473 61.7198 56.8107 60.8151C56.274 59.8951 55.5073 59.1821 54.5107 58.6761C53.5293 58.1701 52.387 57.9171 51.0837 57.9171H46.7367V70.0151H51.0837Z" fill="#20272B"/>
<path d="M74.1336 65.9901C74.1336 66.1588 74.1183 66.3811 74.0876 66.6571H64.1976C64.3356 67.7304 64.8033 68.5968 65.6006 69.2561C66.4133 69.9001 67.4176 70.2221 68.6136 70.2221C70.0703 70.2221 71.2433 69.7314 72.1326 68.7501L73.3516 70.1761C72.7996 70.8201 72.1096 71.3108 71.2816 71.6481C70.469 71.9855 69.5566 72.1541 68.5446 72.1541C67.2566 72.1541 66.1143 71.8934 65.1176 71.3721C64.121 70.8354 63.3466 70.0918 62.7946 69.1411C62.258 68.1904 61.9896 67.1171 61.9896 65.9211C61.9896 64.7404 62.2503 63.6748 62.7716 62.7241C63.3083 61.7734 64.0366 61.0374 64.9566 60.5161C65.892 59.9794 66.9423 59.7111 68.1076 59.7111C69.273 59.7111 70.308 59.9794 71.2126 60.5161C72.1326 61.0374 72.8456 61.7734 73.3516 62.7241C73.873 63.6748 74.1336 64.7634 74.1336 65.9901ZM68.1076 61.5741C67.0496 61.5741 66.1603 61.8961 65.4396 62.5401C64.7343 63.1841 64.3203 64.0274 64.1976 65.0701H72.0176C71.895 64.0428 71.4733 63.2071 70.7526 62.5631C70.0473 61.9038 69.1656 61.5741 68.1076 61.5741Z" fill="#20272B"/>
<path d="M81.3017 59.7111C82.9884 59.7111 84.2764 60.1251 85.1657 60.9531C86.0704 61.7811 86.5227 63.0154 86.5227 64.6561V72.0161H84.4297V70.4061C84.0617 70.9734 83.5327 71.4104 82.8427 71.7171C82.168 72.0084 81.363 72.1541 80.4277 72.1541C79.063 72.1541 77.9667 71.8244 77.1387 71.1651C76.326 70.5058 75.9197 69.6395 75.9197 68.5661C75.9197 67.4928 76.3107 66.6341 77.0927 65.9901C77.8747 65.3308 79.1167 65.0011 80.8187 65.0011H84.3147V64.5641C84.3147 63.6134 84.0387 62.8851 83.4867 62.3791C82.9347 61.8731 82.122 61.6201 81.0487 61.6201C80.328 61.6201 79.6227 61.7428 78.9327 61.9881C78.2427 62.2181 77.66 62.5324 77.1847 62.9311L76.2647 61.2751C76.8934 60.7691 77.6447 60.3858 78.5187 60.1251C79.3927 59.8491 80.3204 59.7111 81.3017 59.7111ZM80.7957 70.4521C81.639 70.4521 82.3674 70.2681 82.9807 69.9001C83.594 69.5168 84.0387 68.9801 84.3147 68.2901V66.5881H80.9107C79.04 66.5881 78.1047 67.2168 78.1047 68.4741C78.1047 69.0874 78.3424 69.5704 78.8177 69.9231C79.293 70.2758 79.9524 70.4521 80.7957 70.4521Z" fill="#20272B"/>
<path d="M90.6088 54.9501H92.8168V72.0161H90.6088V54.9501Z" fill="#20272B"/>
<path d="M108.05 65.9901C108.05 66.1588 108.034 66.3811 108.004 66.6571H98.1136C98.2516 67.7304 98.7193 68.5968 99.5166 69.2561C100.329 69.9001 101.334 70.2221 102.53 70.2221C103.986 70.2221 105.159 69.7314 106.049 68.7501L107.268 70.1761C106.716 70.8201 106.026 71.3108 105.198 71.6481C104.385 71.9855 103.473 72.1541 102.461 72.1541C101.173 72.1541 100.03 71.8934 99.0336 71.3721C98.037 70.8354 97.2626 70.0918 96.7106 69.1411C96.174 68.1904 95.9056 67.1171 95.9056 65.9211C95.9056 64.7404 96.1663 63.6748 96.6876 62.7241C97.2243 61.7734 97.9526 61.0374 98.8726 60.5161C99.808 59.9794 100.858 59.7111 102.024 59.7111C103.189 59.7111 104.224 59.9794 105.129 60.5161C106.049 61.0374 106.762 61.7734 107.268 62.7241C107.789 63.6748 108.05 64.7634 108.05 65.9901ZM102.024 61.5741C100.966 61.5741 100.076 61.8961 99.3556 62.5401C98.6503 63.1841 98.2363 64.0274 98.1136 65.0701H105.934C105.811 64.0428 105.389 63.2071 104.669 62.5631C103.963 61.9038 103.082 61.5741 102.024 61.5741Z" fill="#20272B"/>
<path d="M113.232 61.8731C113.615 61.1678 114.182 60.6311 114.934 60.2631C115.685 59.8951 116.597 59.7111 117.671 59.7111V61.8501C117.548 61.8348 117.379 61.8271 117.165 61.8271C115.969 61.8271 115.026 62.1874 114.336 62.9081C113.661 63.6134 113.324 64.6255 113.324 65.9441V72.0161H111.116V59.8261H113.232V61.8731Z" fill="#20272B"/>
<path d="M134.247 72.2001C132.637 72.2001 131.18 71.8474 129.877 71.1421C128.589 70.4214 127.577 69.4401 126.841 68.1981C126.105 66.9408 125.737 65.5301 125.737 63.9661C125.737 62.4021 126.105 60.9991 126.841 59.7571C127.577 58.4998 128.597 57.5184 129.9 56.8131C131.203 56.0924 132.66 55.7321 134.27 55.7321C135.527 55.7321 136.677 55.9468 137.72 56.3761C138.763 56.7901 139.652 57.4111 140.388 58.2391L138.893 59.6881C137.682 58.4154 136.171 57.7791 134.362 57.7791C133.166 57.7791 132.085 58.0474 131.119 58.5841C130.153 59.1208 129.394 59.8644 128.842 60.8151C128.305 61.7504 128.037 62.8008 128.037 63.9661C128.037 65.1314 128.305 66.1894 128.842 67.1401C129.394 68.0754 130.153 68.8114 131.119 69.3481C132.085 69.8848 133.166 70.1531 134.362 70.1531C136.156 70.1531 137.666 69.5091 138.893 68.2211L140.388 69.6701C139.652 70.4981 138.755 71.1268 137.697 71.5561C136.654 71.9855 135.504 72.2001 134.247 72.2001Z" fill="#20272B"/>
<path d="M147.629 59.7111C149.316 59.7111 150.604 60.1251 151.493 60.9531C152.398 61.7811 152.85 63.0154 152.85 64.6561V72.0161H150.757V70.4061C150.389 70.9734 149.86 71.4104 149.17 71.7171C148.495 72.0084 147.69 72.1541 146.755 72.1541C145.39 72.1541 144.294 71.8244 143.466 71.1651C142.653 70.5058 142.247 69.6395 142.247 68.5661C142.247 67.4928 142.638 66.6341 143.42 65.9901C144.202 65.3308 145.444 65.0011 147.146 65.0011H150.642V64.5641C150.642 63.6134 150.366 62.8851 149.814 62.3791C149.262 61.8731 148.449 61.6201 147.376 61.6201C146.655 61.6201 145.95 61.7428 145.26 61.9881C144.57 62.2181 143.987 62.5324 143.512 62.9311L142.592 61.2751C143.221 60.7691 143.972 60.3858 144.846 60.1251C145.72 59.8491 146.648 59.7111 147.629 59.7111ZM147.123 70.4521C147.966 70.4521 148.695 70.2681 149.308 69.9001C149.921 69.5168 150.366 68.9801 150.642 68.2901V66.5881H147.238C145.367 66.5881 144.432 67.2168 144.432 68.4741C144.432 69.0874 144.67 69.5704 145.145 69.9231C145.62 70.2758 146.28 70.4521 147.123 70.4521Z" fill="#20272B"/>
<path d="M159.052 61.8731C159.435 61.1678 160.003 60.6311 160.754 60.2631C161.505 59.8951 162.418 59.7111 163.491 59.7111V61.8501C163.368 61.8348 163.2 61.8271 162.985 61.8271C161.789 61.8271 160.846 62.1874 160.156 62.9081C159.481 63.6134 159.144 64.6255 159.144 65.9441V72.0161H156.936V59.8261H159.052V61.8731Z" fill="#20272B"/>
<path d="M169.798 72.1541C168.801 72.1541 167.843 72.0238 166.923 71.7631C166.003 71.4871 165.283 71.1421 164.761 70.7281L165.681 68.9801C166.218 69.3634 166.87 69.6701 167.636 69.9001C168.403 70.1301 169.177 70.2451 169.959 70.2451C171.891 70.2451 172.857 69.6931 172.857 68.5891C172.857 68.2211 172.727 67.9298 172.466 67.7151C172.206 67.5004 171.876 67.3471 171.477 67.2551C171.094 67.1478 170.542 67.0328 169.821 66.9101C168.84 66.7568 168.035 66.5804 167.406 66.3811C166.793 66.1818 166.264 65.8444 165.819 65.3691C165.374 64.8938 165.152 64.2268 165.152 63.3681C165.152 62.2641 165.612 61.3824 166.532 60.7231C167.452 60.0484 168.687 59.7111 170.235 59.7111C171.048 59.7111 171.861 59.8108 172.673 60.0101C173.486 60.2094 174.153 60.4778 174.674 60.8151L173.731 62.5631C172.734 61.9191 171.562 61.5971 170.212 61.5971C169.277 61.5971 168.564 61.7504 168.073 62.0571C167.583 62.3638 167.337 62.7701 167.337 63.2761C167.337 63.6748 167.475 63.9891 167.751 64.2191C168.027 64.4491 168.365 64.6178 168.763 64.7251C169.177 64.8324 169.752 64.9551 170.488 65.0931C171.47 65.2618 172.259 65.4458 172.857 65.6451C173.47 65.8291 173.992 66.1511 174.421 66.6111C174.851 67.0711 175.065 67.7151 175.065 68.5431C175.065 69.6471 174.59 70.5288 173.639 71.1881C172.704 71.8321 171.424 72.1541 169.798 72.1541Z" fill="#20272B"/>
</svg>
