<svg width="42" height="42" viewBox="0 0 42 42" fill="none" xmlns="http://www.w3.org/2000/svg">
<path d="M41.495 8.77483C41.495 15.0064 38.7783 19.5337 38.6641 19.7225C38.434 20.0986 38.0357 20.3049 37.6247 20.3049C37.4089 20.3049 37.1915 20.2478 36.9947 20.1287C36.4203 19.7796 36.2362 19.0322 36.5837 18.4578C36.6091 18.4165 39.0608 14.2955 39.0608 8.77483C39.0608 5.62652 37.0137 3.34146 34.1923 3.34146C31.5074 3.34146 29.3239 5.52496 29.3239 8.2115C29.3239 9.35562 29.8777 12.2627 30.0903 13.2862C30.2284 13.9448 29.8047 14.5891 29.1461 14.7271C28.4876 14.862 27.8433 14.4415 27.7069 13.7845C27.6228 13.383 26.8865 9.81422 26.8865 8.2115C26.8865 4.18407 30.1633 0.907227 34.1923 0.907227C38.3546 0.907227 41.495 4.28881 41.495 8.77483ZM34.3986 10.6902C34.8826 14.735 35.584 22.6169 34.7779 23.4199L17.0908 41.1085C16.0038 42.1971 14.2377 42.1971 13.1491 41.1069L1.32229 29.2817C0.233715 28.1947 0.233715 26.4285 1.32229 25.34L19.0109 7.65293C19.2918 7.37206 22.3512 7.35936 25.7915 7.53868C25.7725 7.7656 25.7233 7.97982 25.7233 8.2115C25.7233 9.09379 25.9185 10.4617 26.1232 11.6645C25.763 12.1993 25.5519 12.8419 25.5519 13.5354C25.5519 15.3825 27.0499 16.8805 28.897 16.8805C30.7441 16.8805 32.2421 15.3825 32.2421 13.5354C32.2421 12.3976 31.6724 11.3947 30.8044 10.7917C30.6267 9.73329 30.4838 8.71136 30.4838 8.2115C30.4838 8.1036 30.5061 8.00362 30.5156 7.8973C30.9393 7.94174 31.3566 7.98775 31.7517 8.03695C34.0892 8.32417 34.113 8.31941 34.3986 10.6902ZM24.9711 23.9277C24.6966 23.1644 24.2396 22.2488 23.2478 21.1951L24.5903 19.8511L23.0955 18.3578L21.6467 19.8082C19.7075 18.48 17.7081 18.5879 16.3514 19.9447C14.8724 21.4236 15.2215 23.3009 16.3069 25.4828C17.0527 26.9935 17.1892 27.8631 16.61 28.4423C16.0149 29.0373 15.0549 28.7787 14.1837 27.9091C13.1935 26.9189 12.6127 25.6954 12.3239 24.7036L10.0801 26.0334C10.3404 26.9316 11.0418 28.2122 12.0319 29.2658L10.5689 30.7305L12.0621 32.2253L13.6347 30.6543C15.7087 32.1174 17.8002 31.9206 19.1569 30.5639C20.5454 29.1722 20.6676 27.6171 19.4775 25.1464C18.6523 23.3754 18.4539 22.5059 18.9427 22.0187C19.3711 21.5902 20.1328 21.4681 21.1246 22.4598C22.2243 23.5595 22.5893 24.6275 22.7876 25.1924L24.9711 23.9277Z" fill="url(#paint0_linear_2101_2168)"/>
<defs>
<linearGradient id="paint0_linear_2101_2168" x1="0.435898" y1="11.3477" x2="51.4621" y2="13.2626" gradientUnits="userSpaceOnUse">
<stop stop-color="#FD4B0D"/>
<stop offset="1" stop-color="#FF855A"/>
</linearGradient>
</defs>
</svg>
