<svg width="44" height="45" viewBox="0 0 44 45" fill="none" xmlns="http://www.w3.org/2000/svg">
<path fill-rule="evenodd" clip-rule="evenodd" d="M11.9654 16.4412C11.9654 7.61479 19.1466 0.433594 27.9739 0.433594C36.8012 0.433594 43.9824 7.61479 43.9824 16.4412C43.9824 25.2694 36.8012 32.4506 27.9739 32.4506C24.1305 32.4506 20.4948 31.0947 17.6019 28.6354L15.0756 31.1625L15.9858 32.0728C16.489 32.5759 16.489 33.3917 15.9858 33.894L5.85933 44.0214C5.35614 44.5246 4.54125 44.5237 4.03805 44.0214L0.394649 40.378C-0.108541 39.8748 -0.107683 39.059 0.394649 38.5567L10.522 28.4293C11.0243 27.927 11.8401 27.927 12.3433 28.4293L13.2543 29.3413L15.7806 26.8142C13.3273 23.9281 11.9654 20.295 11.9654 16.4412ZM40.6016 16.4603C40.6016 23.4534 34.9326 29.1225 27.9395 29.1225C20.9464 29.1225 15.2773 23.4534 15.2773 16.4603C15.2773 9.46723 20.9464 3.7982 27.9395 3.7982C34.9326 3.7982 40.6016 9.46723 40.6016 16.4603ZM27.4827 8.67053C27.666 8.28635 28.2129 8.28635 28.3962 8.67053L30.4612 12.998C30.5349 13.1526 30.6819 13.2594 30.8518 13.2818L35.6055 13.9084C36.0276 13.964 36.1965 14.4841 35.8878 14.7772L32.4103 18.0783C32.286 18.1963 32.2299 18.3691 32.2611 18.5375L33.1341 23.2522C33.2116 23.6708 32.7692 23.9922 32.3951 23.7892L28.1809 21.502C28.0303 21.4202 27.8486 21.4202 27.6981 21.502L23.4839 23.7892C23.1097 23.9922 22.6673 23.6708 22.7448 23.2522L23.6179 18.5375C23.649 18.3691 23.5929 18.1963 23.4687 18.0783L19.9911 14.7772C19.6824 14.4841 19.8514 13.964 20.2734 13.9084L25.0272 13.2818C25.197 13.2594 25.344 13.1526 25.4178 12.998L27.4827 8.67053Z" fill="url(#paint0_linear_2101_2171)"/>
<defs>
<linearGradient id="paint0_linear_2101_2171" x1="-0.0574621" y1="11.6243" x2="54.673" y2="13.6796" gradientUnits="userSpaceOnUse">
<stop stop-color="#FD4B0D"/>
<stop offset="1" stop-color="#FF855A"/>
</linearGradient>
</defs>
</svg>
