<svg width="41" height="41" viewBox="0 0 41 41" fill="none" xmlns="http://www.w3.org/2000/svg">
<path d="M0.893188 20.8527C0.893188 9.80475 9.85318 0.848633 20.9011 0.848633C31.9491 0.848633 40.909 9.80475 40.909 20.8527C40.909 31.9006 31.9491 40.8568 20.9011 40.8568C9.85318 40.8568 0.893188 31.9006 0.893188 20.8527Z" fill="#0798E3"/>
<path d="M10.7928 19.1666L28.0022 12.0867C28.8009 11.7788 29.4985 12.2946 29.2397 13.5833L29.2412 13.5817L26.311 28.3113C26.0938 29.3556 25.5122 29.6095 24.6986 29.1175L20.2364 25.6085L18.0841 27.8209C17.8461 28.0748 17.6453 28.2891 17.1842 28.2891L17.501 23.4438L25.771 15.4719C26.131 15.1338 25.6907 14.9434 25.2162 15.2798L14.9962 22.1455L10.5905 20.6791C9.63406 20.3553 9.61324 19.6586 10.7928 19.1666Z" fill="white"/>
</svg>
