<svg width="41" height="41" viewBox="0 0 41 41" fill="none" xmlns="http://www.w3.org/2000/svg">
<path d="M0.815552 20.8527C0.815552 9.80475 9.77554 0.848633 20.8235 0.848633C31.8714 0.848633 40.8314 9.80475 40.8314 20.8527C40.8314 31.9006 31.8714 40.8568 20.8235 40.8568C9.77554 40.8568 0.815552 31.9006 0.815552 20.8527Z" fill="#474FA0"/>
<path d="M31.0709 15.0973L31.0645 15.0718C30.5469 12.9797 28.2134 10.7349 26.0706 10.2679L26.0464 10.2629C22.5804 9.60182 19.066 9.60182 15.6007 10.2629L15.5758 10.2679C13.4336 10.7349 11.1002 12.9797 10.5819 15.0718L10.5762 15.0973C9.93628 18.0189 9.93628 20.9817 10.5762 23.9033L10.5819 23.9289C11.078 25.9316 13.2377 28.0733 15.3006 28.6623V30.9975C15.3006 31.8427 16.3308 32.2579 16.9167 31.648L19.2832 29.1885C19.7964 29.2172 20.31 29.2332 20.8235 29.2332C22.5683 29.2332 24.3137 29.0683 26.0464 28.7378L26.0706 28.7328C28.2134 28.2658 30.5469 26.0209 31.0645 23.9289L31.0709 23.9033C31.7108 20.9817 31.7108 18.0189 31.0709 15.0973ZM29.1982 23.4796C28.8526 24.8444 27.0809 26.5412 25.6731 26.8547C23.8302 27.2051 21.9727 27.3548 20.117 27.3034C20.0801 27.3024 20.0446 27.3167 20.0189 27.3432C19.7556 27.6134 18.291 29.1166 18.291 29.1166L16.4531 31.0024C16.3187 31.1425 16.0827 31.0472 16.0827 30.8539V26.9853C16.0827 26.9214 16.0371 26.8671 15.9743 26.8548C15.9739 26.8548 15.9736 26.8547 15.9732 26.8546C14.5655 26.5411 12.7944 24.8443 12.4482 23.4795C11.8723 20.8387 11.8723 18.1617 12.4482 15.5209C12.7944 14.1561 14.5655 12.4593 15.9732 12.1459C19.1918 11.5338 22.4552 11.5338 25.6731 12.1459C27.0816 12.4593 28.8526 14.1561 29.1982 15.5209C29.7747 18.1618 29.7747 20.8388 29.1982 23.4796Z" fill="white"/>
<path d="M23.8857 25.2654C23.6692 25.1998 23.463 25.1556 23.2714 25.0762C21.2867 24.2529 19.46 23.1907 18.0131 21.5625C17.1903 20.6367 16.5463 19.5914 16.0019 18.4851C15.7437 17.9605 15.5262 17.4154 15.3044 16.8738C15.1022 16.3799 15.4 15.8697 15.7136 15.4976C16.0079 15.1483 16.3866 14.881 16.7967 14.6841C17.1168 14.5303 17.4325 14.6189 17.6663 14.8902C18.1716 15.4767 18.6358 16.0931 19.0117 16.7729C19.2429 17.191 19.1795 17.7021 18.7606 17.9866C18.6587 18.0558 18.566 18.137 18.4711 18.2151C18.3879 18.2836 18.3096 18.3527 18.2526 18.4454C18.1484 18.615 18.1434 18.8151 18.2105 18.9994C18.7271 20.4189 19.5979 21.5226 21.0268 22.1171C21.2555 22.2122 21.4851 22.3229 21.7485 22.2922C22.1897 22.2407 22.3325 21.7569 22.6416 21.5041C22.9438 21.2571 23.3299 21.2538 23.6554 21.4597C23.981 21.6657 24.2966 21.8869 24.6103 22.1104C24.9182 22.3297 25.2248 22.5443 25.5088 22.7944C25.7819 23.0349 25.876 23.3504 25.7222 23.6767C25.4406 24.2744 25.031 24.7716 24.44 25.089C24.2731 25.1785 24.0738 25.2075 23.8857 25.2654C24.0738 25.2075 23.6692 25.1997 23.8857 25.2654Z" fill="white"/>
<path d="M20.8275 14.0011C23.4236 14.0738 25.5559 15.7964 26.0128 18.3625C26.0907 18.7998 26.1184 19.2468 26.1531 19.6906C26.1676 19.8773 26.0619 20.0546 25.8604 20.057C25.6523 20.0595 25.5587 19.8854 25.5452 19.6988C25.5184 19.3295 25.4999 18.9585 25.449 18.5922C25.1802 16.6586 23.6381 15.059 21.7131 14.7157C21.4235 14.664 21.127 14.6504 20.8336 14.6197C20.6481 14.6002 20.4051 14.5889 20.364 14.3584C20.3296 14.1651 20.4927 14.0112 20.6768 14.0014C20.7269 13.9986 20.7772 14.0009 20.8275 14.0011C23.4236 14.0738 20.7772 14.0009 20.8275 14.0011Z" fill="white"/>
<path d="M24.7759 19.1131C24.7717 19.1455 24.7694 19.2217 24.7504 19.2935C24.6815 19.5541 24.2863 19.5867 24.1953 19.3237C24.1683 19.2457 24.1643 19.1569 24.1641 19.0729C24.1632 18.5231 24.0437 17.9739 23.7664 17.4956C23.4813 17.0039 23.0458 16.5907 22.535 16.3406C22.2261 16.1894 21.8921 16.0954 21.5535 16.0394C21.4056 16.015 21.256 16.0001 21.1074 15.9794C20.9272 15.9544 20.831 15.8396 20.8395 15.6621C20.8475 15.4958 20.9691 15.3761 21.1504 15.3864C21.7462 15.4202 22.3218 15.5489 22.8515 15.8294C23.9287 16.3997 24.5441 17.2999 24.7237 18.5019C24.7318 18.5564 24.7449 18.6103 24.749 18.665C24.7591 18.8 24.7655 18.9351 24.7759 19.1131C24.7717 19.1455 24.7655 18.9351 24.7759 19.1131Z" fill="white"/>
<path d="M23.1599 19.0493C22.9428 19.0532 22.8266 18.933 22.8042 18.734C22.7887 18.5952 22.7764 18.4546 22.7433 18.3196C22.678 18.0537 22.5367 17.8073 22.313 17.6443C22.2074 17.5674 22.0878 17.5113 21.9624 17.4751C21.8032 17.4292 21.6378 17.4418 21.479 17.4029C21.3064 17.3606 21.211 17.2209 21.2382 17.059C21.2628 16.9117 21.4061 16.7968 21.5671 16.8084C22.573 16.8811 23.292 17.4011 23.3946 18.5853C23.4018 18.6689 23.4103 18.7572 23.3918 18.8371C23.36 18.974 23.2587 19.0426 23.1599 19.0493C23.2587 19.0426 22.9428 19.0532 23.1599 19.0493Z" fill="white"/>
</svg>
