<svg width="183" height="44" viewBox="0 0 183 44" fill="none" xmlns="http://www.w3.org/2000/svg">
<rect x="0.827148" width="182.035" height="44" rx="4" fill="#BC0209"/>
<path d="M27.8063 21.89V22.31C27.8063 24.0087 27.405 25.2173 26.6023 25.936C25.7996 26.6453 24.4976 27 22.6963 27H17.5583V17.2H22.6963C24.4976 17.2 25.7996 17.5593 26.6023 18.278C27.405 18.9873 27.8063 20.1913 27.8063 21.89ZM20.5823 20.056V24.144H22.4863C23.317 24.144 23.905 23.9993 24.2503 23.71C24.605 23.4207 24.7823 22.9307 24.7823 22.24V21.96C24.7823 21.2693 24.605 20.7793 24.2503 20.49C23.905 20.2007 23.317 20.056 22.4863 20.056H20.5823ZM37.8786 24.144V27H28.9606V17.2H37.8506V20.056H31.9846V20.742H35.9606V23.43H31.9846V24.144H37.8786ZM46.1058 25.376H42.0738L41.4438 27H38.2658L42.2278 17.2H45.9798L49.9418 27H46.7358L46.1058 25.376ZM45.0138 22.52L44.0898 20.126L43.1658 22.52H45.0138ZM59.1575 24.144V27H50.5895V17.2H53.6135V24.144H59.1575ZM69.1052 24.144V27H60.1872V17.2H69.0772V20.056H63.2112V20.742H67.1872V23.43H63.2112V24.144H69.1052ZM75.6244 23.808H73.3284V27H70.3044V17.2H76.8284C78.0604 17.2 78.9937 17.4847 79.6284 18.054C80.2631 18.6233 80.5804 19.4587 80.5804 20.56C80.5804 22.0067 79.9737 22.982 78.7604 23.486L80.7764 27H77.3744L75.6244 23.808ZM73.3284 20.952H76.8984C77.3371 20.952 77.5564 20.8027 77.5564 20.504C77.5564 20.2053 77.3371 20.056 76.8984 20.056H73.3284V20.952ZM99.9021 17.2V27H85.3981V17.2H88.4221V24.144H91.1381V17.2H94.1621V24.144H96.8781V17.2H99.9021ZM111.825 21.652V22.548C111.807 24.3213 111.461 25.544 110.789 26.216C110.127 26.8787 108.909 27.2193 107.135 27.238H105.847C104.074 27.2193 102.851 26.8787 102.179 26.216C101.517 25.544 101.176 24.3213 101.157 22.548V21.652C101.176 19.8787 101.517 18.6607 102.179 17.998C102.851 17.326 104.074 16.9807 105.847 16.962H107.135C108.909 16.9807 110.127 17.326 110.789 17.998C111.461 18.6607 111.807 19.8787 111.825 21.652ZM104.181 21.722V22.478C104.181 23.262 104.298 23.7707 104.531 24.004C104.765 24.2373 105.273 24.354 106.057 24.354H106.925C107.709 24.354 108.218 24.2373 108.451 24.004C108.685 23.7707 108.801 23.262 108.801 22.478V21.722C108.801 20.9473 108.685 20.4433 108.451 20.21C108.218 19.9673 107.709 19.846 106.925 19.846H106.057C105.273 19.846 104.765 19.9673 104.531 20.21C104.298 20.4433 104.181 20.9473 104.181 21.722ZM123.044 17.2L118.242 25.516C117.906 26.0947 117.538 26.4867 117.136 26.692C116.735 26.8973 116.128 27 115.316 27H113.3V24.144H115.008C115.232 24.144 115.428 24.1067 115.596 24.032L111.648 17.2H115.064L117.36 21.274L119.656 17.2H123.044Z" fill="white"/>
<rect x="138.854" width="44.0085" height="44" rx="4" fill="#ED1C24"/>
<path d="M172.755 14.7345C172.05 13.4713 171.285 13.2389 169.726 13.1505C168.169 13.0442 164.253 13 160.861 13C157.463 13 153.546 13.0442 151.99 13.1489C150.435 13.2389 149.668 13.4696 148.956 14.7345C148.229 15.9962 147.856 18.1693 147.856 21.9951C147.856 21.9984 147.856 22 147.856 22C147.856 22.0033 147.856 22.0049 147.856 22.0049V22.0082C147.856 25.8176 148.229 28.0071 148.956 29.2556C149.668 30.5189 150.433 30.748 151.989 30.8544C153.546 30.946 157.463 31 160.861 31C164.253 31 168.169 30.946 169.727 30.856C171.286 30.7496 172.052 30.5205 172.757 29.2573C173.49 28.0087 173.861 25.8193 173.861 22.0098C173.861 22.0098 173.861 22.0049 173.861 22.0016C173.861 22.0016 173.861 21.9984 173.861 21.9967C173.861 18.1693 173.49 15.9962 172.755 14.7345ZM157.608 26.9091V17.0909L165.734 22L157.608 26.9091Z" fill="white"/>
</svg>
